<svg xmlns="http://www.w3.org/2000/svg" xmlns:xlink="http://www.w3.org/1999/xlink" version="1.1" width="1080" height="1080" viewBox="0 0 1080 1080" xml:space="preserve">
<desc>Created with Fabric.js 3.5.0</desc>
<defs>
</defs>
<rect x="0" y="0" width="100%" height="100%" fill="rgba(255,255,255,0)"/>
<g transform="matrix(1 0 0 1 174.4471 517.6043)" style="" id="698328">
		
<path xml:space="preserve" font-family="Lato" font-size="769" font-style="normal" font-weight="bold" style="stroke: none; stroke-width: 1; stroke-dasharray: none; stroke-linecap: butt; stroke-dashoffset: 0; stroke-linejoin: miter; stroke-miterlimit: 4; is-custom-font: none; font-file-url: none; fill: rgb(140,198,63); fill-rule: nonzero; opacity: 1; white-space: pre;" d="M175.72-262.12L150.34-213.29Q146.11-204.83 140.53-201.37Q134.96-197.91 127.27-197.91L127.27-197.91Q119.58-197.91 109.97-203.87Q100.35-209.83 87.28-217.13Q74.21-224.44 56.71-230.40Q39.22-236.36 15.38-236.36L15.38-236.36Q-6.15-236.36-22.11-231.17Q-38.07-225.98-49.02-216.75Q-59.98-207.52-65.36-194.64Q-70.75-181.76-70.75-166.38L-70.75-166.38Q-70.75-146.77-59.79-133.70Q-48.83-120.63-30.76-111.40Q-12.69-102.17 10.38-94.86Q33.45-87.56 57.48-79.29Q81.51-71.02 104.58-60.07Q127.65-49.11 145.73-32.38Q163.80-15.66 174.76 8.57Q185.71 32.79 185.71 67.40L185.71 67.40Q185.71 105.08 172.83 137.95Q159.95 170.83 135.15 195.24Q110.35 219.66 74.59 233.69Q38.83 247.73-7.31 247.73L-7.31 247.73Q-33.84 247.73-59.60 242.53Q-85.36 237.34-109.01 227.73Q-132.65 218.12-153.22 204.66Q-173.79 191.20-189.94 174.67L-189.94 174.67L-159.95 125.07Q-155.72 119.69-149.76 116.03Q-143.80 112.38-136.50 112.38L-136.50 112.38Q-126.88 112.38-115.73 120.26Q-104.58 128.15-89.40 137.76Q-74.21 147.37-53.64 155.25Q-33.07 163.14-4.23 163.14L-4.23 163.14Q39.99 163.14 64.21 142.18Q88.44 121.23 88.44 82.01L88.44 82.01Q88.44 60.09 77.48 46.25Q66.52 32.41 48.45 22.99Q30.38 13.57 7.31 7.03Q-15.76 0.49-39.60-7.20Q-63.44-14.89-86.51-25.65Q-109.58-36.42-127.65-53.72Q-145.73-71.02-156.68-96.98Q-167.64-122.93-167.64-161.00L-167.64-161.00Q-167.64-191.37-155.53-220.21Q-143.42-249.05-120.16-271.35Q-96.89-293.65-63.06-307.11Q-29.22-320.57 14.23-320.57L14.23-320.57Q63.44-320.57 104.97-305.19Q146.49-289.81 175.72-262.12L175.72-262.12Z"/></g>
<g transform="matrix(1 0 0 1 709.5349 557.8614)" style="" id="43605">
		
<path xml:space="preserve" font-family="Lato" font-size="809" font-style="normal" font-weight="bold" style="stroke: none; stroke-width: 1; stroke-dasharray: none; stroke-linecap: butt; stroke-dashoffset: 0; stroke-linejoin: miter; stroke-miterlimit: 4; is-custom-font: none; font-file-url: none; fill: rgb(41,171,226); fill-rule: nonzero; opacity: 1; white-space: pre;" d="M-19.42 11.44L-19.42 11.44Q-12.54 24.38-6.67 38.34Q-0.81 52.29 4.85 66.45L4.85 66.45Q10.52 51.89 16.58 37.73Q22.65 23.57 29.53 10.63L29.53 10.63L202.65-313.37Q205.89-319.44 209.33-323.08Q212.77-326.72 217.01-328.34Q221.26-329.96 226.52-330.36Q231.78-330.77 239.06-330.77L239.06-330.77L321.17-330.77L321.17 254.14L225.31 254.14L225.31-123.66Q225.31-134.18 225.91-146.72Q226.52-159.26 227.73-172.20L227.73-172.20L50.97 159.49Q44.90 170.81 35.19 177.08Q25.48 183.35 12.54 183.35L12.54 183.35L-2.43 183.35Q-15.37 183.35-25.08 177.08Q-34.79 170.81-40.85 159.49L-40.85 159.49L-220.05-173.42Q-218.43-160.07-217.82-147.33Q-217.22-134.59-217.22-123.66L-217.22-123.66L-217.22 254.14L-313.08 254.14L-313.08-330.77L-230.97-330.77Q-223.69-330.77-218.43-330.36Q-213.17-329.96-208.92-328.34Q-204.68-326.72-201.04-323.08Q-197.40-319.44-194.16-313.37L-194.16-313.37L-19.42 11.44Z"/></g>
<g transform="matrix(8.3533 0 0 9.4207 970.8508 111.0325)" id="833748">
<path style="stroke: none; stroke-width: 1; stroke-dasharray: none; stroke-linecap: butt; stroke-dashoffset: 0; stroke-linejoin: miter; stroke-miterlimit: 4; is-custom-font: none; font-file-url: none; fill: rgb(41,171,226); fill-rule: nonzero; opacity: 1;" vector-effect="non-scaling-stroke" transform=" translate(-12, -12)" d="M 3 16 H 8 v 5 a 1 1 0 0 0 1 1 h 6 a 1 1 0 0 0 1 -1 V 16 h 5 a 1 1 0 0 0 1 -1 V 9 a 1 1 0 0 0 -1 -1 H 16 V 3 a 1 1 0 0 0 -1 -1 H 9 A 1 1 0 0 0 8 3 V 8 H 3 A 1 1 0 0 0 2 9 v 6 A 1 1 0 0 0 3 16 Z m 1 -6 H 9 a 1 1 0 0 0 1 -1 V 4 h 4 V 9 a 1 1 0 0 0 1 1 h 5 v 4 H 15 a 1 1 0 0 0 -1 1 v 5 H 10 V 15 a 1 1 0 0 0 -1 -1 H 4 Z" stroke-linecap="round"/>
</g>
<g transform="matrix(27.213 0 0 17.2847 469.9587 821.3374)" id="774257">
<path style="stroke: none; stroke-width: 1; stroke-dasharray: none; stroke-linecap: butt; stroke-dashoffset: 0; stroke-linejoin: miter; stroke-miterlimit: 4; is-custom-font: none; font-file-url: none; fill: rgb(168,168,168); fill-rule: nonzero; opacity: 1;" vector-effect="non-scaling-stroke" transform=" translate(-16, -15.5)" d="M 25 4 c -2.8 0 -5 2.2 -5 5 c 0 2.4 1.7 4.4 4 4.9 v 7.6 c 0 3.6 -2.9 6.5 -6.5 6.5 S 11 25.1 11 21.5 v -0.6 c 3.9 -0.5 7 -3.9 7 -7.9 V 5 c 0 -1.1 -0.9 -2 -2 -2 h -1 c -0.6 0 -1 -0.4 -1 -1 c 0 -0.6 -0.4 -1 -1 -1 s -1 0.4 -1 1 c 0 1.7 1.3 3 3 3 h 1 v 8 c 0 3.3 -2.7 6 -6 6 s -6 -2.7 -6 -6 V 5 h 1 c 1.7 0 3 -1.3 3 -3 c 0 -0.6 -0.4 -1 -1 -1 S 6 1.4 6 2 c 0 0.6 -0.4 1 -1 1 H 4 C 2.9 3 2 3.9 2 5 v 8 c 0 4.1 3.1 7.4 7 7.9 v 0.6 c 0 4.7 3.8 8.5 8.5 8.5 s 8.5 -3.8 8.5 -8.5 v -7.6 c 2.3 -0.5 4 -2.5 4 -4.9 C 30 6.2 27.8 4 25 4 z M 25.7 9.7 C 25.5 9.9 25.3 10 25 10 c -0.1 0 -0.3 0 -0.4 -0.1 c -0.1 -0.1 -0.2 -0.1 -0.3 -0.2 C 24.1 9.5 24 9.3 24 9 c 0 -0.3 0.1 -0.5 0.3 -0.7 c 0.1 -0.1 0.2 -0.2 0.3 -0.2 C 25 7.9 25.4 8 25.7 8.3 C 25.9 8.5 26 8.7 26 9 C 26 9.3 25.9 9.5 25.7 9.7 z" stroke-linecap="round"/>
</g>
</svg>