<svg xmlns="http://www.w3.org/2000/svg" xmlns:xlink="http://www.w3.org/1999/xlink" version="1.1" width="1080" height="1080" viewBox="0 0 1080 1080" xml:space="preserve">
<desc>Created with Fabric.js 3.5.0</desc>
<defs>
</defs>
<rect x="0" y="0" width="100%" height="100%" fill="rgba(255,255,255,0)"/>
<g transform="matrix(1 0 0 1 232 540)" style="" id="698328">
		
<path xml:space="preserve" font-family="Lato" font-size="344" font-style="normal" font-weight="bold" style="stroke: none; stroke-width: 1; stroke-dasharray: none; stroke-linecap: butt; stroke-dashoffset: 0; stroke-linejoin: miter; stroke-miterlimit: 4; is-custom-font: none; font-file-url: none; fill: rgb(140,198,63); fill-rule: nonzero; opacity: 1; white-space: pre;" d="M-61.06-117.26L-72.41-95.41Q-74.30-91.63-76.80-90.08Q-79.29-88.53-82.73-88.53L-82.73-88.53Q-86.17-88.53-90.47-91.20Q-94.77-93.86-100.62-97.13Q-106.47-100.40-114.29-103.07Q-122.12-105.73-132.78-105.73L-132.78-105.73Q-142.42-105.73-149.55-103.41Q-156.69-101.09-161.59-96.96Q-166.50-92.83-168.90-87.07Q-171.31-81.31-171.31-74.43L-171.31-74.43Q-171.31-65.66-166.41-59.81Q-161.51-53.96-153.42-49.83Q-145.34-45.70-135.02-42.44Q-124.70-39.17-113.95-35.47Q-103.20-31.77-92.88-26.87Q-82.56-21.97-74.48-14.49Q-66.39-7.00-61.49 3.83Q-56.59 14.67-56.59 30.15L-56.59 30.15Q-56.59 47.00-62.35 61.71Q-68.11 76.42-79.21 87.34Q-90.30 98.26-106.30 104.54Q-122.29 110.82-142.93 110.82L-142.93 110.82Q-154.80 110.82-166.32 108.49Q-177.85 106.17-188.43 101.87Q-199.00 97.57-208.21 91.55Q-217.41 85.53-224.63 78.14L-224.63 78.14L-211.22 55.95Q-209.32 53.54-206.66 51.91Q-203.99 50.27-200.72 50.27L-200.72 50.27Q-196.42 50.27-191.44 53.80Q-186.45 57.32-179.65 61.62Q-172.86 65.92-163.66 69.45Q-154.46 72.98-141.56 72.98L-141.56 72.98Q-121.78 72.98-110.94 63.60Q-100.10 54.23-100.10 36.68L-100.10 36.68Q-100.10 26.88-105.01 20.69Q-109.91 14.50-117.99 10.28Q-126.08 6.07-136.40 3.14Q-146.72 0.22-157.38-3.22Q-168.04-6.66-178.36-11.48Q-188.68-16.29-196.77-24.03Q-204.85-31.77-209.75-43.38Q-214.66-54.99-214.66-72.02L-214.66-72.02Q-214.66-85.61-209.24-98.51Q-203.82-111.41-193.41-121.38Q-183.01-131.36-167.87-137.38Q-152.74-143.40-133.30-143.40L-133.30-143.40Q-111.28-143.40-92.71-136.52Q-74.13-129.64-61.06-117.26L-61.06-117.26ZM51.77-71.16L51.77-71.16Q71.55-71.16 87.63-64.80Q103.72-58.43 115.07-46.74Q126.42-35.04 132.61-18.18Q138.80-1.33 138.80 19.48L138.80 19.48Q138.80 40.47 132.61 57.32Q126.42 74.18 115.07 86.05Q103.72 97.92 87.63 104.28Q71.55 110.64 51.77 110.64L51.77 110.64Q31.99 110.64 15.82 104.28Q-0.34 97.92-11.78 86.05Q-23.22 74.18-29.50 57.32Q-35.78 40.47-35.78 19.48L-35.78 19.48Q-35.78-1.33-29.50-18.18Q-23.22-35.04-11.78-46.74Q-0.34-58.43 15.82-64.80Q31.99-71.16 51.77-71.16ZM51.77 77.96L51.77 77.96Q73.79 77.96 84.37 63.17Q94.94 48.38 94.94 19.83L94.94 19.83Q94.94-8.72 84.37-23.69Q73.79-38.65 51.77-38.65L51.77-38.65Q29.41-38.65 18.75-23.60Q8.08-8.55 8.08 19.83L8.08 19.83Q8.08 48.21 18.75 63.09Q29.41 77.96 51.77 77.96ZM174.75-147.53L217.24-147.53L217.24 108.06L174.75 108.06L174.75-147.53Z"/></g>
<g transform="matrix(1 0 0 1 771.0089 540)" style="" id="43605">
		
<path xml:space="preserve" font-family="Lato" font-size="325" font-style="normal" font-weight="bold" style="stroke: none; stroke-width: 1; stroke-dasharray: none; stroke-linecap: butt; stroke-dashoffset: 0; stroke-linejoin: miter; stroke-miterlimit: 4; is-custom-font: none; font-file-url: none; fill: rgb(41,171,226); fill-rule: nonzero; opacity: 1; white-space: pre;" d="M-196.81 4.60L-196.81 4.60Q-194.05 9.80-191.69 15.40Q-189.34 21.01-187.06 26.70L-187.06 26.70Q-184.79 20.85-182.35 15.16Q-179.91 9.47-177.15 4.27L-177.15 4.27L-107.60-125.89Q-106.30-128.33-104.92-129.79Q-103.54-131.25-101.83-131.90Q-100.12-132.55-98.01-132.72Q-95.90-132.88-92.97-132.88L-92.97-132.88L-59.99-132.88L-59.99 102.10L-98.50 102.10L-98.50-49.68Q-98.50-53.90-98.26-58.94Q-98.01-63.98-97.52-69.18L-97.52-69.18L-168.54 64.07Q-170.97 68.62-174.87 71.14Q-178.77 73.66-183.97 73.66L-183.97 73.66L-189.99 73.66Q-195.19 73.66-199.09 71.14Q-202.99 68.62-205.42 64.07L-205.42 64.07L-277.41-69.67Q-276.76-64.30-276.52-59.19Q-276.27-54.07-276.27-49.68L-276.27-49.68L-276.27 102.10L-314.79 102.10L-314.79-132.88L-281.80-132.88Q-278.87-132.88-276.76-132.72Q-274.65-132.55-272.94-131.90Q-271.24-131.25-269.77-129.79Q-268.31-128.33-267.01-125.89L-267.01-125.89L-196.81 4.60ZM54.09-67.23L54.09-67.23Q69.85-67.23 83.09-62.19Q96.34-57.15 105.93-47.49Q115.51-37.82 120.88-23.76Q126.24-9.70 126.24 8.33L126.24 8.33Q126.24 12.88 125.83 15.89Q125.43 18.90 124.37 20.60Q123.31 22.31 121.53 23.04Q119.74 23.77 116.98 23.77L116.98 23.77L13.95 23.77Q15.74 49.45 27.76 61.47Q39.79 73.50 59.61 73.50L59.61 73.50Q69.36 73.50 76.43 71.22Q83.50 68.95 88.78 66.18Q94.06 63.42 98.04 61.15Q102.03 58.87 105.76 58.87L105.76 58.87Q108.20 58.87 109.99 59.85Q111.78 60.82 113.08 62.61L113.08 62.61L124.78 77.23Q118.11 85.03 109.83 90.31Q101.54 95.60 92.52 98.76Q83.50 101.93 74.16 103.23Q64.81 104.53 56.04 104.53L56.04 104.53Q38.65 104.53 23.70 98.76Q8.75 93.00-2.30 81.70Q-13.35 70.41-19.69 53.75Q-26.02 37.10-26.02 15.16L-26.02 15.16Q-26.02-1.90-20.50-16.94Q-14.97-31.97-4.66-43.10Q5.66-54.23 20.53-60.73Q35.40-67.23 54.09-67.23ZM54.90-38.47L54.90-38.47Q37.35-38.47 27.44-28.55Q17.53-18.64 14.76-0.44L14.76-0.44L90.16-0.44Q90.16-8.24 88.05-15.15Q85.94-22.05 81.55-27.25Q77.16-32.45 70.50-35.46Q63.84-38.47 54.90-38.47ZM300.76 102.10L276.23 102.10Q268.43 102.10 265.99 94.78L265.99 94.78L262.74 78.70Q257.54 84.55 251.85 89.26Q246.16 93.97 239.58 97.38Q233.00 100.80 225.44 102.66Q217.89 104.53 209.11 104.53L209.11 104.53Q195.46 104.53 184.09 98.85Q172.71 93.16 164.51 82.35Q156.30 71.55 151.83 55.62Q147.36 39.70 147.36 19.22L147.36 19.22Q147.36 0.70 152.40-15.23Q157.44-31.15 166.86-42.85Q176.29-54.55 189.45-61.14Q202.61-67.72 219.03-67.72L219.03-67.72Q233.00-67.72 242.91-63.25Q252.83-58.78 260.63-51.30L260.63-51.30L260.63-139.38L300.76-139.38L300.76 102.10ZM222.76 72.68L222.76 72.68Q235.28 72.68 244.05 67.48Q252.83 62.28 260.63 52.70L260.63 52.70L260.63-22.05Q253.80-30.34 245.76-33.75Q237.71-37.17 228.45-37.17L228.45-37.17Q219.35-37.17 211.96-33.75Q204.56-30.34 199.44-23.44Q194.33-16.53 191.56-5.89Q188.80 4.76 188.80 19.22L188.80 19.22Q188.80 33.85 191.16 44.00Q193.51 54.16 197.90 60.58Q202.29 67.00 208.63 69.84Q214.96 72.68 222.76 72.68Z"/></g>
<g transform="matrix(8.3533 0 0 9.4207 822.6648 332.0558)" id="833748">
<path style="stroke: none; stroke-width: 1; stroke-dasharray: none; stroke-linecap: butt; stroke-dashoffset: 0; stroke-linejoin: miter; stroke-miterlimit: 4; is-custom-font: none; font-file-url: none; fill: rgb(41,171,226); fill-rule: nonzero; opacity: 1;" vector-effect="non-scaling-stroke" transform=" translate(-12, -12)" d="M 3 16 H 8 v 5 a 1 1 0 0 0 1 1 h 6 a 1 1 0 0 0 1 -1 V 16 h 5 a 1 1 0 0 0 1 -1 V 9 a 1 1 0 0 0 -1 -1 H 16 V 3 a 1 1 0 0 0 -1 -1 H 9 A 1 1 0 0 0 8 3 V 8 H 3 A 1 1 0 0 0 2 9 v 6 A 1 1 0 0 0 3 16 Z m 1 -6 H 9 a 1 1 0 0 0 1 -1 V 4 h 4 V 9 a 1 1 0 0 0 1 1 h 5 v 4 H 15 a 1 1 0 0 0 -1 1 v 5 H 10 V 15 a 1 1 0 0 0 -1 -1 H 4 Z" stroke-linecap="round"/>
</g>
<g transform="matrix(31.2496 0 0 11.8507 468.7037 827.9398)" id="972934">
<path style="stroke: none; stroke-width: 1; stroke-dasharray: none; stroke-linecap: butt; stroke-dashoffset: 0; stroke-linejoin: miter; stroke-miterlimit: 4; is-custom-font: none; font-file-url: none; fill: rgb(168,168,168); fill-rule: nonzero; opacity: 1;" vector-effect="non-scaling-stroke" transform=" translate(-16, -15.5)" d="M 25 4 c -2.8 0 -5 2.2 -5 5 c 0 2.4 1.7 4.4 4 4.9 v 7.6 c 0 3.6 -2.9 6.5 -6.5 6.5 S 11 25.1 11 21.5 v -0.6 c 3.9 -0.5 7 -3.9 7 -7.9 V 5 c 0 -1.1 -0.9 -2 -2 -2 h -1 c -0.6 0 -1 -0.4 -1 -1 c 0 -0.6 -0.4 -1 -1 -1 s -1 0.4 -1 1 c 0 1.7 1.3 3 3 3 h 1 v 8 c 0 3.3 -2.7 6 -6 6 s -6 -2.7 -6 -6 V 5 h 1 c 1.7 0 3 -1.3 3 -3 c 0 -0.6 -0.4 -1 -1 -1 S 6 1.4 6 2 c 0 0.6 -0.4 1 -1 1 H 4 C 2.9 3 2 3.9 2 5 v 8 c 0 4.1 3.1 7.4 7 7.9 v 0.6 c 0 4.7 3.8 8.5 8.5 8.5 s 8.5 -3.8 8.5 -8.5 v -7.6 c 2.3 -0.5 4 -2.5 4 -4.9 C 30 6.2 27.8 4 25 4 z M 25.7 9.7 C 25.5 9.9 25.3 10 25 10 c -0.1 0 -0.3 0 -0.4 -0.1 c -0.1 -0.1 -0.2 -0.1 -0.3 -0.2 C 24.1 9.5 24 9.3 24 9 c 0 -0.3 0.1 -0.5 0.3 -0.7 c 0.1 -0.1 0.2 -0.2 0.3 -0.2 C 25 7.9 25.4 8 25.7 8.3 C 25.9 8.5 26 8.7 26 9 C 26 9.3 25.9 9.5 25.7 9.7 z" stroke-linecap="round"/>
</g>
</svg>